<?xml version="1.0" encoding="utf-8"?>
<!-- Generator: Adobe Illustrator 25.3.1, SVG Export Plug-In . SVG Version: 6.00 Build 0)  -->
<svg version="1.1" id="Layer_1" xmlns="http://www.w3.org/2000/svg" xmlns:xlink="http://www.w3.org/1999/xlink" x="0px" y="0px"
	 viewBox="0 0 579 2502" style="enable-background:new 0 0 579 2502;" xml:space="preserve">
<style type="text/css">
	.st0{display:none;fill:none;stroke:#FF0000;stroke-width:5;stroke-miterlimit:10;}
	.st1{opacity:0.7;fill:#242C75;enable-background:new    ;}
	.st2{opacity:0.64;fill:none;stroke:#FF0000;stroke-width:5;stroke-miterlimit:10;}
</style>
<image style="display:none;overflow:visible;enable-background:new    ;" width="579" height="2502" xlink:href="remote.png" >
</image>
<circle class="st0" cx="119" cy="1347.3" r="57.7"/>
<circle class="st0" cx="459.1" cy="1348.2" r="57.7"/>
<path class="st1" d="M0,0v2502h579V0H0z M181,865.5c0,24-19.5,43.5-43.5,43.5h-59c-24,0-43.5-19.5-43.5-43.5v0
	c0-24,19.5-43.5,43.5-43.5h59C161.5,822,181,841.5,181,865.5L181,865.5z"/>
<path class="st2" d="M35,865.5L35,865.5c0-24,19.5-43.5,43.5-43.5h59c24,0,43.5,19.5,43.5,43.5v0c0,24-19.5,43.5-43.5,43.5h-59
	C54.5,909,35,889.5,35,865.5z"/>
</svg>
