<?xml version="1.0" encoding="utf-8"?>
<!-- Generator: Adobe Illustrator 25.3.1, SVG Export Plug-In . SVG Version: 6.00 Build 0)  -->
<svg version="1.1" id="Layer_1" xmlns="http://www.w3.org/2000/svg" xmlns:xlink="http://www.w3.org/1999/xlink" x="0px" y="0px"
	 viewBox="0 0 579 2502" style="enable-background:new 0 0 579 2502;" xml:space="preserve">
<style type="text/css">
	.st0{opacity:0.7;fill:#242C75;}
	.st1{fill:none;stroke:#FF0000;stroke-width:5;stroke-miterlimit:10;}
</style>
<path class="st0" d="M0,0v2502h579V0H0z M119.1,1407.9c-33.4,0-60.4-27-60.4-60.4c0-33.4,27-60.4,60.4-60.4
	c33.4,0,60.4,27,60.4,60.4C179.5,1380.9,152.5,1407.9,119.1,1407.9z M459.1,1408.6c-33.4,0-60.4-27-60.4-60.4
	c0-33.4,27-60.4,60.4-60.4c33.4,0,60.4,27,60.4,60.4C519.5,1381.5,492.4,1408.6,459.1,1408.6z"/>
<circle class="st1" cx="119" cy="1347.3" r="57.7"/>
<circle class="st1" cx="459.1" cy="1348.2" r="57.7"/>
</svg>
